<svg width="52" height="52" viewBox="0 0 52 52" fill="none" xmlns="http://www.w3.org/2000/svg">
<circle cx="26" cy="26" r="26" fill="#124E91"/>
<path d="M26 10.5C17.4375 10.5 10.5 17.4375 10.5 26C10.5 34.5625 17.4375 41.5 26 41.5C34.5625 41.5 41.5 34.5625 41.5 26C41.5 17.4375 34.5625 10.5 26 10.5ZM31.7806 30.0625L30.5306 31.625C30.4486 31.7276 30.3472 31.813 30.2321 31.8763C30.1171 31.9397 29.9907 31.9797 29.8602 31.9943C29.7297 32.0088 29.5975 31.9974 29.4714 31.9609C29.3453 31.9243 29.2276 31.8633 29.125 31.7812L24.9375 28.6737C24.6449 28.4395 24.4087 28.1424 24.2465 27.8046C24.0842 27.4667 24 27.0967 24 26.7219V17C24 16.7348 24.1054 16.4804 24.2929 16.2929C24.4804 16.1054 24.7348 16 25 16H27C27.2652 16 27.5196 16.1054 27.7071 16.2929C27.8946 16.4804 28 16.7348 28 17V26L31.625 28.6562C31.7276 28.7383 31.813 28.8398 31.8764 28.9549C31.9397 29.0701 31.9798 29.1965 31.9942 29.3271C32.0087 29.4577 31.9973 29.5899 31.9606 29.7161C31.924 29.8423 31.8628 29.96 31.7806 30.0625Z" fill="white"/>
</svg>
