<svg width="52" height="52" viewBox="0 0 52 52" fill="none" xmlns="http://www.w3.org/2000/svg">
<circle cx="26" cy="26" r="26" fill="#B33F2E"/>
<path d="M27.9467 19.2386V12H17.28C16.5707 12 16 12.5695 16 13.2774V37.9738C16 38.6817 16.5707 39.2512 17.28 39.2512H35.2C35.9093 39.2512 36.48 38.6817 36.48 37.9738V20.516H29.2267C28.5227 20.516 27.9467 19.9412 27.9467 19.2386ZM31.36 31.7997C31.36 32.151 31.072 32.4384 30.72 32.4384H21.76C21.408 32.4384 21.12 32.151 21.12 31.7997V31.3739C21.12 31.0226 21.408 30.7352 21.76 30.7352H30.72C31.072 30.7352 31.36 31.0226 31.36 31.3739V31.7997ZM31.36 28.3933C31.36 28.7446 31.072 29.032 30.72 29.032H21.76C21.408 29.032 21.12 28.7446 21.12 28.3933V27.9675C21.12 27.6162 21.408 27.3288 21.76 27.3288H30.72C31.072 27.3288 31.36 27.6162 31.36 27.9675V28.3933ZM31.36 24.5611V24.9869C31.36 25.3382 31.072 25.6256 30.72 25.6256H21.76C21.408 25.6256 21.12 25.3382 21.12 24.9869V24.5611C21.12 24.2098 21.408 23.9224 21.76 23.9224H30.72C31.072 23.9224 31.36 24.2098 31.36 24.5611ZM36.48 18.4881V18.8128H29.6533V12H29.9787C30.32 12 30.6453 12.1331 30.8853 12.3726L36.1067 17.5886C36.3467 17.8281 36.48 18.1528 36.48 18.4881Z" fill="white"/>
</svg>
