<svg width="278" height="38" viewBox="0 0 278 38" fill="none" xmlns="http://www.w3.org/2000/svg">
<path d="M176.712 31.168C174.872 31.168 173.368 30.648 172.2 29.608L172.752 28.48C173.376 28.992 174 29.36 174.624 29.584C175.248 29.792 175.968 29.896 176.784 29.896C177.728 29.896 178.448 29.728 178.944 29.392C179.456 29.056 179.712 28.584 179.712 27.976C179.712 27.464 179.544 27.056 179.208 26.752C178.872 26.432 178.336 26.192 177.6 26.032L175.632 25.576C174.688 25.352 173.944 24.968 173.4 24.424C172.872 23.864 172.608 23.208 172.608 22.456C172.608 21.448 173 20.632 173.784 20.008C174.568 19.384 175.616 19.072 176.928 19.072C177.744 19.072 178.504 19.208 179.208 19.48C179.928 19.736 180.52 20.112 180.984 20.608L180.432 21.736C179.888 21.256 179.328 20.904 178.752 20.68C178.192 20.456 177.584 20.344 176.928 20.344C176.048 20.344 175.36 20.52 174.864 20.872C174.368 21.224 174.12 21.712 174.12 22.336C174.12 22.848 174.272 23.264 174.576 23.584C174.896 23.904 175.384 24.144 176.04 24.304L178.032 24.784C180.144 25.264 181.2 26.304 181.2 27.904C181.2 28.896 180.792 29.688 179.976 30.28C179.176 30.872 178.088 31.168 176.712 31.168ZM189.289 31.168C188.185 31.168 187.217 30.92 186.385 30.424C185.569 29.928 184.937 29.224 184.489 28.312C184.041 27.4 183.817 26.352 183.817 25.168C183.817 23.968 184.041 22.904 184.489 21.976C184.953 21.048 185.601 20.336 186.433 19.84C187.265 19.328 188.241 19.072 189.361 19.072C190.145 19.072 190.897 19.208 191.617 19.48C192.353 19.752 192.945 20.128 193.393 20.608L192.841 21.76C192.249 21.264 191.673 20.904 191.113 20.68C190.569 20.456 190.001 20.344 189.409 20.344C188.161 20.344 187.169 20.776 186.433 21.64C185.713 22.488 185.353 23.664 185.353 25.168C185.353 26.656 185.713 27.816 186.433 28.648C187.153 29.464 188.137 29.872 189.385 29.872C189.977 29.872 190.545 29.76 191.089 29.536C191.649 29.312 192.233 28.96 192.841 28.48L193.393 29.608C192.913 30.088 192.305 30.472 191.569 30.76C190.833 31.032 190.073 31.168 189.289 31.168ZM201.58 19.072C204.38 19.072 205.78 20.576 205.78 23.584V31H204.316V23.68C204.316 22.528 204.084 21.688 203.62 21.16C203.156 20.632 202.42 20.368 201.412 20.368C200.26 20.368 199.332 20.72 198.628 21.424C197.94 22.128 197.596 23.072 197.596 24.256V31H196.132V14.08H197.596V21.304C197.964 20.584 198.492 20.032 199.18 19.648C199.884 19.264 200.684 19.072 201.58 19.072ZM219.341 25.36H210.533C210.581 26.816 210.965 27.936 211.685 28.72C212.405 29.488 213.429 29.872 214.757 29.872C216.165 29.872 217.437 29.392 218.573 28.432L219.149 29.584C218.637 30.064 217.981 30.448 217.181 30.736C216.397 31.024 215.589 31.168 214.757 31.168C212.981 31.168 211.581 30.632 210.557 29.56C209.533 28.488 209.021 27.016 209.021 25.144C209.021 23.944 209.245 22.888 209.693 21.976C210.157 21.048 210.797 20.336 211.613 19.84C212.445 19.328 213.397 19.072 214.469 19.072C215.989 19.072 217.181 19.568 218.045 20.56C218.909 21.552 219.341 22.936 219.341 24.712V25.36ZM214.469 20.272C213.349 20.272 212.453 20.624 211.781 21.328C211.109 22.032 210.709 23.016 210.581 24.28H217.997C217.965 23 217.645 22.016 217.037 21.328C216.429 20.624 215.573 20.272 214.469 20.272ZM232.49 14.08V31H231.026V28.768C230.674 29.552 230.154 30.152 229.466 30.568C228.778 30.968 227.962 31.168 227.018 31.168C225.994 31.168 225.09 30.92 224.306 30.424C223.522 29.912 222.914 29.2 222.482 28.288C222.05 27.36 221.834 26.288 221.834 25.072C221.834 23.872 222.05 22.824 222.482 21.928C222.914 21.016 223.522 20.312 224.306 19.816C225.09 19.32 225.994 19.072 227.018 19.072C227.962 19.072 228.778 19.28 229.466 19.696C230.154 20.096 230.674 20.688 231.026 21.472V14.08H232.49ZM227.21 29.872C228.426 29.872 229.362 29.464 230.018 28.648C230.69 27.816 231.026 26.64 231.026 25.12C231.026 23.6 230.698 22.424 230.042 21.592C229.386 20.76 228.45 20.344 227.234 20.344C226.002 20.344 225.05 20.76 224.378 21.592C223.706 22.408 223.37 23.568 223.37 25.072C223.37 26.592 223.706 27.776 224.378 28.624C225.05 29.456 225.994 29.872 227.21 29.872ZM245.947 19.36V31H244.507V28.912C244.139 29.648 243.611 30.208 242.923 30.592C242.251 30.976 241.483 31.168 240.619 31.168C239.243 31.168 238.203 30.792 237.499 30.04C236.811 29.272 236.467 28.144 236.467 26.656V19.36H237.931V26.56C237.931 27.696 238.155 28.536 238.603 29.08C239.067 29.608 239.787 29.872 240.763 29.872C241.883 29.872 242.779 29.52 243.451 28.816C244.139 28.096 244.483 27.144 244.483 25.96V19.36H245.947ZM249.961 31V14.08H251.425V31H249.961ZM265.037 25.36H256.229C256.277 26.816 256.661 27.936 257.381 28.72C258.101 29.488 259.125 29.872 260.453 29.872C261.861 29.872 263.133 29.392 264.269 28.432L264.845 29.584C264.333 30.064 263.677 30.448 262.877 30.736C262.093 31.024 261.285 31.168 260.453 31.168C258.677 31.168 257.277 30.632 256.253 29.56C255.229 28.488 254.717 27.016 254.717 25.144C254.717 23.944 254.941 22.888 255.389 21.976C255.853 21.048 256.493 20.336 257.309 19.84C258.141 19.328 259.093 19.072 260.165 19.072C261.685 19.072 262.877 19.568 263.741 20.56C264.605 21.552 265.037 22.936 265.037 24.712V25.36ZM260.165 20.272C259.045 20.272 258.149 20.624 257.477 21.328C256.805 22.032 256.405 23.016 256.277 24.28H263.693C263.661 23 263.341 22.016 262.733 21.328C262.125 20.624 261.269 20.272 260.165 20.272ZM272.066 31.168C270.226 31.168 268.722 30.648 267.554 29.608L268.106 28.48C268.73 28.992 269.354 29.36 269.978 29.584C270.602 29.792 271.322 29.896 272.138 29.896C273.082 29.896 273.802 29.728 274.298 29.392C274.81 29.056 275.066 28.584 275.066 27.976C275.066 27.464 274.898 27.056 274.562 26.752C274.226 26.432 273.69 26.192 272.954 26.032L270.986 25.576C270.042 25.352 269.298 24.968 268.754 24.424C268.226 23.864 267.962 23.208 267.962 22.456C267.962 21.448 268.354 20.632 269.138 20.008C269.922 19.384 270.97 19.072 272.282 19.072C273.098 19.072 273.858 19.208 274.562 19.48C275.282 19.736 275.874 20.112 276.338 20.608L275.786 21.736C275.242 21.256 274.682 20.904 274.106 20.68C273.546 20.456 272.938 20.344 272.282 20.344C271.402 20.344 270.714 20.52 270.218 20.872C269.722 21.224 269.474 21.712 269.474 22.336C269.474 22.848 269.626 23.264 269.93 23.584C270.25 23.904 270.738 24.144 271.394 24.304L273.386 24.784C275.498 25.264 276.554 26.304 276.554 27.904C276.554 28.896 276.146 29.688 275.33 30.28C274.53 30.872 273.442 31.168 272.066 31.168Z" fill="black"/>
<path d="M74.7695 9.01143H76.6514L77.3029 11.7619H77.52C79.1124 9.84381 81.501 8.68572 83.9981 8.57715C88.6667 8.57715 91.96 12.5943 91.96 19.6152C91.96 26.6 88.7029 30.6533 83.9981 30.6533C81.501 30.581 79.1486 29.4229 77.5562 27.5048H77.3391V38H74.8057L74.7695 9.01143ZM77.3029 24.6095C79.4381 27.2876 81.3562 28.6267 83.7448 28.6267C87.2552 28.6267 89.3543 25.4781 89.3543 19.6876C89.3543 13.8971 87.2552 10.7486 83.7448 10.7486C81.3562 10.7486 79.4381 12.0152 77.3029 14.7295V24.6095Z" fill="#047BC1"/>
<path d="M96.918 8.93907H99.3066V12.7752H99.5599C100.971 9.9162 102.745 8.61334 105.387 8.61334H105.495V11.1829H105.133C102.31 11.1829 100.465 12.92 99.2704 17.0457V30.6895H96.8818L96.918 8.93907Z" fill="#047BC1"/>
<path d="M112.806 8.61334H110.345V30.6895H112.806V8.61334Z" fill="#047BC1"/>
<path d="M125.147 28.7352C127.897 28.7352 129.743 27.0705 129.743 24.8267C129.743 22.3295 127.68 21.6781 123.989 20.3752C119.465 18.7829 117.149 17.5524 117.149 14.2953C117.149 11.0381 119.899 8.61334 124.351 8.61334C127.354 8.64953 130.105 10.1333 131.733 12.5219L129.851 13.7886C128.549 11.7981 126.305 10.6038 123.88 10.6038C122.867 10.4952 121.817 10.821 121.057 11.5086C120.297 12.1962 119.863 13.1372 119.899 14.1143C119.899 16.3943 122.071 16.9372 125.762 18.2762C130.177 19.8686 132.457 21.1714 132.457 24.5733C132.457 27.9752 129.49 30.6895 124.893 30.6895C121.528 30.7619 118.379 29.1695 116.497 26.4914L118.451 24.9714C120.37 27.5048 122.577 28.7352 125.147 28.7352Z" fill="#047BC1"/>
<path d="M137.488 9.01142H139.804V12.3771H139.949C142.192 9.84381 144.545 8.64952 146.789 8.64952C149.105 8.57714 151.168 10.1333 151.855 12.3771H152.145C154.461 9.84381 156.705 8.64952 158.985 8.64952C162.568 8.64952 164.341 10.9657 164.341 15.5981V30.7257H161.952V16.539C161.952 12.7029 161.301 10.8933 158.297 10.8933C156.343 10.8933 154.244 12.16 152.145 14.9105V30.7257H149.648V16.539C149.648 12.7029 148.996 10.8933 145.992 10.8933C144.038 10.8933 141.975 12.16 139.84 14.9105V30.7257H137.343L137.488 9.01142Z" fill="#047BC1"/>
<path d="M4.1619 0.0361927V10.821C5.39238 9.08381 7.41905 8.07047 9.55429 8.10666C14.8381 8.10666 18.3848 12.2686 18.3848 19.2533C18.3848 26.5276 15.0552 30.6895 9.59048 30.6895C7.27429 30.7619 5.06667 29.6762 3.72762 27.7943L3.11238 30.3638H0C0.217143 28.1924 0.253338 26.1657 0.253338 24.2114V0H4.1619V0.0361927ZM8.93905 27.3962C12.3048 27.3962 14.2591 24.6819 14.2591 19.5429C14.2591 14.1505 12.3048 11.4 8.79429 11.4C6.91238 11.4724 5.17524 12.4495 4.12572 13.9695V24.6095C5.21143 26.2381 6.98477 27.2876 8.93905 27.3962Z" fill="#124E91"/>
<path d="M25.6953 1.26666V30.6895H22.04V1.26666H25.6953Z" fill="#124E91"/>
<path d="M35.6114 8.61334V23.2343C35.6114 26.0934 36.5162 27.4324 38.6876 27.4324C40.7504 27.2514 42.6685 26.2019 43.9714 24.5372V8.64953H47.7714V30.3638H44.2247V27.4686C41.8724 29.64 39.8457 30.7619 37.4933 30.7619C33.9104 30.7619 31.8114 28.4819 31.8114 24.3924V8.68573H35.6114V8.61334Z" fill="#124E91"/>
<path d="M56.6019 20.3752V20.7733C56.6019 25.08 58.5562 27.5048 61.9219 27.5048C64.1295 27.5048 66.1562 26.2019 67.0609 24.1752L69.8838 25.8762C68.3276 28.9524 65.1428 30.8343 61.7047 30.7257C55.9142 30.7257 52.7295 26.9619 52.7295 19.9048C52.7295 12.6305 55.9504 8.64954 61.4514 8.64954C66.5181 8.64954 69.7752 12.5219 69.7752 19.2534C69.7752 19.6153 69.7752 19.9772 69.7752 20.3391L56.6019 20.3752ZM61.3428 11.7257C58.5562 11.7257 56.819 13.7162 56.6381 17.3714H65.8304C65.7581 13.7524 64.0209 11.7257 61.3428 11.7257Z" fill="#124E91"/>
<path d="M161.265 0.0361938C162.966 0.0361938 164.341 1.41143 164.341 3.11238C164.341 4.81334 162.966 6.18857 161.265 6.18857C159.564 6.18857 158.189 4.81334 158.189 3.11238C158.225 1.41143 159.564 0.0361938 161.265 0.0361938ZM161.265 5.64572C161.952 5.64572 162.604 5.35619 163.038 4.88572C163.472 4.41524 163.762 3.72762 163.726 3.07619C163.798 2.13524 163.328 1.26667 162.531 0.760003C161.735 0.253337 160.722 0.289527 159.926 0.760003C159.13 1.23048 158.659 2.13524 158.731 3.07619C158.695 3.76381 158.912 4.45143 159.383 4.9581C159.853 5.46477 160.505 5.75428 161.192 5.75428V5.64572H161.265ZM160.107 1.30286H161.518C162.351 1.30286 162.749 1.62857 162.749 2.31619C162.785 2.56952 162.676 2.82286 162.495 3.04C162.314 3.22095 162.061 3.32953 161.808 3.32953L162.821 4.92191H162.206L161.192 3.32953H160.686V4.92191H160.179L160.107 1.30286ZM160.722 2.85905H161.41C161.844 2.85905 162.17 2.75047 162.17 2.28C162.17 1.80952 161.808 1.77333 161.41 1.77333H160.722V2.85905Z" fill="#167EC2"/>
</svg>
